<svg xmlns="http://www.w3.org/2000/svg" viewBox="0 0 228 362">
  <path fill-rule="evenodd"
    d="M83 0c7.2 1.3 6 8.6 3.3 15.8a60.9 60.9 0 0 0-3 11.2c-.1 1-.6 3.6 0 5.9.7 2.6 2.7 4.9 3.6 6l4 2.6c13.8 8.5 21.7 15 23.7 19.7l3.3 12.5 2 4 9.8 10.5.6.6.7-5.9c2.6-12.9 5.5-24.3 11.8-37.5 6.4-13.2 25-13.8 28.3-6 .7 2 2.3 3-1.9 9.2-4.3 6.2-12.4 9.4-15.1 20.5-3.3 15.8 2.6 56.6-3.3 83.6-5.3 26.3-45.4 80.4-52 100.8-6.5 20.4-6.5 29.3-2.5 40.3a26 26 0 0 0 23.5 17.5c12.3.9 24.4-12.2 25.9-14.6 24.6-42.7 7-91.1 13.6-113.8 7.2-22.3 31-22.7 34.4-17 3.5 5.5 3.5 9.1 0 12.6-8.3 8.5-13.4 7.8-10.7 31.4 2 20.4 15 25.7 16.4 67.8a88.8 88.8 0 0 1-3.4 21.5 100.9 100.9 0 0 1-36.7 49.6c-24.8 17-60 12.8-65.8 12.5a116.6 116.6 0 0 1-44-12.5C23.8 335.6 2 306 3.5 275c.6-26.4 7.2-40.8 5.2-59.3-2-17-12.5-19.7-7.2-23.6 4.6-4.7 21.7 9.8 21.7 35.5l1 16.6.3 3.8 1.3-2.6a80.4 80.4 0 0 1 11.6-19.8c.7-1 2.2-2.8 2.2-3l-1.8-5.2a129 129 0 0 1-7.4-42.5c0-9.2 3.3-22.3 9.2-31.5 7.9-11.9 20.4-17.8 27-11.2 11.8 11.2-17.1 17-20.4 38.1a62.9 62.9 0 0 0 4.6 38l1.5 3.1 2.3-2.1 36-34.8 4.4-5c2.4-3.7 3.8-8 3.8-12.3 0-4.6-2.6-12.5-1.3-24.4 1.3-5.2 3.3-9.8 5.2-13.1 6.3-8.1 2.7-22.4 1.3-25.7a108 108 0 0 0-11.1-19L83 61.8 75.1 49c-3-5.6-5.5-11.6-7.4-17.7-1-5.8-.3-11.7 1.6-17.2C74 5 77.7 0 81.7 0H83ZM58 83.6a9.2 9.2 0 1 1 0 18.4 9.2 9.2 0 0 1 0-18.4Zm67.7-78.3a7.9 7.9 0 1 1 8.8 13.1 7.9 7.9 0 0 1-8.8-13.1ZM216.5 219a11.5 11.5 0 1 0 0-23 11.5 11.5 0 0 0 0 23Z">
  </path>
</svg>
