<svg xmlns="http://www.w3.org/2000/svg" fill="none" stroke="currentColor" fill="currentColor" stroke-width="1.5" class="w-6 h-6" viewBox="0 0 24 24"><path stroke-linecap="round" stroke-linejoin="round" d="M18 18.7a9 9 0 0 0 3.7-.5 3 3 0 0 0-4.6-2.7m.9 3.2h0v.7a12 12 0 0 1-6 1.6 12 12 0 0 1-6-1.6 6 6 0 0 1 0-.7m12 0a6 6 0 0 0-1-3.2m0 0a6 6 0 0 0-5-2.8 6 6 0 0 0-5 2.8m0 0a3 3 0 0 0-4.7 2.7 9 9 0 0 0 3.7.5m1-3.2a6 6 0 0 0-1 3.2m9-12a3 3 0 1 1-6 0 3 3 0 0 1 6 0zm6 3a2.3 2.3 0 1 1-4.5 0 2.3 2.3 0 0 1 4.5 0zm-13.5 0a2.3 2.3 0 1 1-4.5 0 2.3 2.3 0 0 1 4.5 0z"/></svg>
