<svg xmlns="http://www.w3.org/2000/svg" width="2400" height="1440" viewBox="0 0 2400 1440"><rect width="100%" height="100%" fill="#c9e2c9"/><path fill="#ffffff" d="M593.1 470.835v189.24q19.92-18.59 43.83-30.21 23.9-11.62 56.11-11.62 27.88 0 49.46 9.46 21.58 9.46 36.03 26.56 14.44 17.1 21.91 40.83 7.47 23.74 7.47 52.29v216.8H725.9v-216.8q0-31.2-14.27-48.3-14.28-17.1-43.49-17.1-21.25 0-39.84 9.63-18.6 9.63-35.2 26.23v246.34h-82v-493.35h82Zm357.24 283.86h154.71q0-15.94-4.48-30.05-4.49-14.11-13.45-24.73-8.96-10.63-22.74-16.77-13.78-6.14-32.04-6.14-35.52 0-55.94 20.25-20.42 20.25-26.06 57.44Zm209.16 49.47H948.68q1.99 26.22 9.29 45.31 7.31 19.09 19.26 31.54 11.95 12.45 28.38 18.6 16.44 6.14 36.36 6.14 19.92 0 34.36-4.65 14.44-4.65 25.23-10.29 10.79-5.65 18.93-10.29 8.13-4.65 15.77-4.65 10.29 0 15.27 7.63l23.57 29.88q-13.61 15.94-30.54 26.73-16.94 10.79-35.36 17.26-18.43 6.48-37.52 9.13-19.09 2.66-37.02 2.66-35.52 0-66.06-11.79-30.55-11.78-53.12-34.86-22.58-23.07-35.53-57.1-12.95-34.03-12.95-78.85 0-34.86 11.29-65.57 11.29-30.71 32.37-53.45 21.08-22.74 51.46-36.02 30.38-13.28 68.56-13.28 32.2 0 59.43 10.29 27.22 10.29 46.81 30.04 19.59 19.76 30.71 48.48 11.12 28.71 11.12 65.57 0 18.59-3.98 25.06-3.99 6.48-15.27 6.48Zm81.67-333.33h82v493.35h-82v-493.35Zm165 0h82.01v493.35h-82.01v-493.35Zm314.74 147.41q37.85 0 68.89 12.28t53.12 34.86q22.08 22.58 34.03 55.11 11.95 32.54 11.95 72.71 0 40.5-11.95 73.04-11.95 32.54-34.03 55.44-22.08 22.91-53.12 35.2-31.04 12.28-68.89 12.28-38.18 0-69.39-12.28-31.21-12.29-53.29-35.2-22.07-22.9-34.19-55.44-12.12-32.54-12.12-73.04 0-40.17 12.12-72.71 12.12-32.53 34.19-55.11 22.08-22.58 53.29-34.86 31.21-12.28 69.39-12.28Zm0 287.84q42.49 0 62.91-28.55 20.42-28.55 20.42-83.67 0-55.11-20.42-83.99-20.42-28.89-62.91-28.89-43.16 0-63.91 29.05t-20.75 83.83q0 54.78 20.75 83.5t63.91 28.72Z"/></svg>