<svg width="346.269887px" height="550.897544px" viewBox="0 0 346.269887 550.897544" version="1.1"
  xmlns="http://www.w3.org/2000/svg" xmlns:xlink="http://www.w3.org/1999/xlink" class="layer-3">
  <defs>
    <path
      d="M88.269887,127.709149 C96.0018735,127.709149 102.269887,133.977162 102.269887,141.709149 C102.269887,149.441135 96.0018735,155.709149 88.269887,155.709149 C80.5379005,155.709149 74.269887,149.441135 74.269887,141.709149 C74.269887,133.977162 80.5379005,127.709149 88.269887,127.709149 Z"
      id="path-adnfck_27m-1"></path>
    <filter x="-26.8%" y="-26.8%" width="153.6%" height="153.6%" filterUnits="objectBoundingBox"
      id="filter-adnfck_27m-2">
      <feGaussianBlur stdDeviation="3" in="SourceAlpha" result="shadowBlurInner1"></feGaussianBlur>
      <feOffset dx="0" dy="-9" in="shadowBlurInner1" result="shadowOffsetInner1"></feOffset>
      <feComposite in="shadowOffsetInner1" in2="SourceAlpha" operator="arithmetic" k2="-1" k3="1"
        result="shadowInnerInner1"></feComposite>
      <feColorMatrix values="0 0 0 0 0.988235294   0 0 0 0 0.780392157   0 0 0 0 0.321568627  0 0 0 0.454518138 0"
        type="matrix" in="shadowInnerInner1"></feColorMatrix>
    </filter>
    <path
      d="M191.769887,8.7091489 C198.121162,8.7091489 203.269887,13.8578743 203.269887,20.2091489 C203.269887,26.5604235 198.121162,31.7091489 191.769887,31.7091489 C185.418612,31.7091489 180.269887,26.5604235 180.269887,20.2091489 C180.269887,13.8578743 185.418612,8.7091489 191.769887,8.7091489 Z"
      id="path-adnfck_27m-3"></path>
    <filter x="-30.4%" y="-30.4%" width="160.9%" height="160.9%" filterUnits="objectBoundingBox"
      id="filter-adnfck_27m-4">
      <feGaussianBlur stdDeviation="3" in="SourceAlpha" result="shadowBlurInner1"></feGaussianBlur>
      <feOffset dx="0" dy="-8" in="shadowBlurInner1" result="shadowOffsetInner1"></feOffset>
      <feComposite in="shadowOffsetInner1" in2="SourceAlpha" operator="arithmetic" k2="-1" k3="1"
        result="shadowInnerInner1"></feComposite>
      <feColorMatrix values="0 0 0 0 0.850980392   0 0 0 0 0.909803922   0 0 0 0 0.474509804  0 0 0 0.39330201 0"
        type="matrix" in="shadowInnerInner1"></feColorMatrix>
    </filter>
    <path
      d="M60.4558049,339.944682 L60.4842376,340.02271 L60.4955266,340.011962 L62.1722398,343.303097 C75.3267483,369.215541 82.2605407,385.128755 82.9736169,391.042739 C84.0028973,399.579201 82.3899878,412.170062 80.2678591,423.734599 L79.9883471,425.236779 L79.5170967,427.707448 C78.4027527,433.659517 77.7120493,439.154792 77.4378118,444.186092 L77.4137946,444.451868 C57.1604528,426.23047 43.9071132,404.418372 37.7335597,378.777564 L37.5255948,377.881221 L38.5307561,375.192656 C38.7326364,374.660137 38.9159216,374.181384 39.0585715,373.816962 L39.2998163,373.219743 C44.6089311,361.011525 51.7804984,349.800267 60.4558049,339.944682 Z"
      id="path-adnfck_27m-5"></path>
    <filter x="-20.8%" y="-9.5%" width="141.6%" height="119.1%" filterUnits="objectBoundingBox"
      id="filter-adnfck_27m-6">
      <feGaussianBlur stdDeviation="3" in="SourceAlpha" result="shadowBlurInner1"></feGaussianBlur>
      <feOffset dx="0" dy="-12" in="shadowBlurInner1" result="shadowOffsetInner1"></feOffset>
      <feComposite in="shadowOffsetInner1" in2="SourceAlpha" operator="arithmetic" k2="-1" k3="1"
        result="shadowInnerInner1"></feComposite>
      <feColorMatrix values="0 0 0 0 0.0431372549   0 0 0 0 0.698039216   0 0 0 0 0.729411765  0 0 0 0.5 0"
        type="matrix" in="shadowInnerInner1"></feColorMatrix>
    </filter>
    <path
      d="M329.269887,333.709149 C338.658728,333.709149 346.269887,326.09799 346.269887,316.709149 C346.269887,307.320308 338.658728,299.709149 329.269887,299.709149 C319.881046,299.709149 312.269887,307.320308 312.269887,316.709149 C312.269887,326.09799 319.881046,333.709149 329.269887,333.709149 Z"
      id="path-adnfck_27m-7"></path>
    <filter x="-26.5%" y="-26.5%" width="152.9%" height="152.9%" filterUnits="objectBoundingBox"
      id="filter-adnfck_27m-8">
      <feGaussianBlur stdDeviation="3" in="SourceAlpha" result="shadowBlurInner1"></feGaussianBlur>
      <feOffset dx="0" dy="-12" in="shadowBlurInner1" result="shadowOffsetInner1"></feOffset>
      <feComposite in="shadowOffsetInner1" in2="SourceAlpha" operator="arithmetic" k2="-1" k3="1"
        result="shadowInnerInner1"></feComposite>
      <feColorMatrix values="0 0 0 0 0.788235294   0 0 0 0 0.219607843   0 0 0 0 0.62745098  0 0 0 0.35118007 0"
        type="matrix" in="shadowInnerInner1"></feColorMatrix>
    </filter>
    <path
      d="M166.055957,479.436896 C169.114856,480.304495 172.013454,480.847364 174.458038,480.985842 C194.153104,482.1015 226.312856,471.651206 251.559601,437.033693 C276.806345,402.41618 267.885724,325.61719 262.175856,299.005407 C256.465987,272.393625 277.999348,245.357877 292.222908,254.050261 C296.23887,256.504519 295.508201,259.825234 292.986868,264.279767 C281.422633,280.17592 276.583813,298.565153 278.470408,319.447465 C281.300301,350.770934 301.778481,358.795868 303.306875,422.870607 C303.575524,434.133164 301.661405,445.472238 297.868295,456.498435 L297.542095,457.430888 C285.807637,485.662898 257.298311,505.321502 224.81872,505.321502 C201.949251,505.321502 184.36337,496.834354 166.675078,480.073681"
      id="path-adnfck_27m-9"></path>
    <filter x="-6.7%" y="-3.8%" width="113.6%" height="107.5%" filterUnits="objectBoundingBox"
      id="filter-adnfck_27m-10">
      <feGaussianBlur stdDeviation="3" in="SourceAlpha" result="shadowBlurInner1"></feGaussianBlur>
      <feOffset dx="0" dy="-12" in="shadowBlurInner1" result="shadowOffsetInner1"></feOffset>
      <feComposite in="shadowOffsetInner1" in2="SourceAlpha" operator="arithmetic" k2="-1" k3="1"
        result="shadowInnerInner1"></feComposite>
      <feColorMatrix values="0 0 0 0 0.231372549   0 0 0 0 0.639215686   0 0 0 0 0.682352941  0 0 0 0.5 0" type="matrix"
        in="shadowInnerInner1"></feColorMatrix>
    </filter>
    <path
      d="M260.681175,60.4806496 C262.964159,66.5901935 259.747868,69.6665219 253.09912,77.2654987 C251.975388,78.5498328 250.775097,79.7924919 249.543091,81.0416104 L247.113858,83.4977146 L246.222023,84.413457 C241.172599,89.645977 236.253925,95.6765901 234.400841,105.655487 C229.957745,129.581659 238.0068,191.328964 229.965204,232.104705 C221.923608,272.880447 159.892401,359.814618 151.229759,391.853325 C142.685318,423.454869 147.304973,460.734476 164.847821,478.261338 C151.063241,464.637707 144.785239,451.446692 144.01845,435.263262 L143.915403,432.965881 C142.885234,408.642653 144.357128,398.308514 138.706994,386.966609 C134.918454,379.36161 128.719225,372.25312 120.109306,365.641139 L119.430954,365.125303 C119.639104,364.733136 119.84952,364.342209 120.062166,363.952532 C131.815724,340.861613 146.673588,320.459555 167.797192,299.659718 L169.42854,298.060369 L170.73405,296.765346 C192.208823,275.293929 220.860712,238.261685 220.860712,198.670135 C220.860712,173.533037 209.98166,152.280101 199.490348,137.609874 L198.3895,136.093917 C198.256135,135.912157 198.245432,135.52862 198.269689,135.215554 L198.647548,131.781989 L198.924943,129.383078 C198.962304,129.073659 198.996233,128.801648 199.024839,128.585455 L199.271473,126.770263 C202.917951,100.623689 209.611252,82.0338644 217.965204,70.989471 C233.464228,50.4988925 255.607878,46.9038854 260.681175,60.4806496 Z"
      id="path-adnfck_27m-11"></path>
    <filter x="-6.8%" y="-2.2%" width="113.5%" height="104.4%" filterUnits="objectBoundingBox"
      id="filter-adnfck_27m-12">
      <feGaussianBlur stdDeviation="3" in="SourceAlpha" result="shadowBlurInner1"></feGaussianBlur>
      <feOffset dx="0" dy="-12" in="shadowBlurInner1" result="shadowOffsetInner1"></feOffset>
      <feComposite in="shadowOffsetInner1" in2="SourceAlpha" operator="arithmetic" k2="-1" k3="1"
        result="shadowInnerInner1"></feComposite>
      <feColorMatrix values="0 0 0 0 0.470588235   0 0 0 0 0.780392157   0 0 0 0 0.768627451  0 0 0 0.5 0" type="matrix"
        in="shadowInnerInner1"></feColorMatrix>
    </filter>
    <path
      d="M150.086,550.752318 L150.217419,550.772413 C143.198782,550.604032 136.305293,550.005839 129.565068,549.006368 C110.317299,546.010991 91.9788038,539.704999 75.5353465,530.862761 C36.8235979,510.046063 3.37117501,465.890397 5.31871981,418.685272 C6.9627581,378.83662 16.1333325,356.973813 13.3452465,328.132505 C10.8364113,302.1799 -5.63535551,298.924519 2.0064506,292.040421 C9.64825671,285.156322 35.5628604,307.734624 35.5628604,346.551971 L35.5667374,348.30925 L35.5783685,350.032576 C35.6817553,361.40823 36.3020763,370.520265 37.4393314,377.368681 L37.526,377.880071 L36.3867877,380.945983 L36.0397319,381.917765 L35.7734573,382.680828 L35.3859462,383.820366 L35.1255724,384.606697 L34.619086,386.18827 L34.2146635,387.505397 L33.9307423,388.461997 L33.5990739,389.616147 L33.2066681,391.038143 L32.8928788,392.224509 L32.5026867,393.769159 L32.0558414,395.647821 L31.7665846,396.937264 L31.4727114,398.316738 L31.1955168,399.692677 L31.0117857,400.651015 L30.7767249,401.939727 L30.638716,402.733767 L30.4426683,403.91699 L30.1507231,405.824151 L30.0347965,406.640377 L29.8226102,408.24462 L29.6721306,409.490025 L29.590636,410.211413 L29.4496222,411.557734 L29.3273634,412.854752 L29.196864,414.42829 L29.109295,415.645043 L29.0426909,416.701038 L28.9658583,418.141696 L28.923972,419.093066 L28.893396,419.916264 L28.8626965,420.939795 L28.8354434,422.235241 C28.8243085,422.929328 28.8187198,423.624762 28.8187198,424.321502 L28.8210954,425.097207 L28.8318635,426.171174 C28.9795009,436.553517 30.3680991,446.635613 32.8559706,456.275037 L33.2610749,457.838528 C45.3657414,503.429727 82.4218158,546.537908 147.046837,550.590679 L147.888548,550.643644 L149.101609,550.70841 L150.086,550.752318 Z"
      id="path-adnfck_27m-13"></path>
    <filter x="-6.3%" y="-3.7%" width="112.4%" height="107.3%" filterUnits="objectBoundingBox"
      id="filter-adnfck_27m-14">
      <feGaussianBlur stdDeviation="3" in="SourceAlpha" result="shadowBlurInner1"></feGaussianBlur>
      <feOffset dx="0" dy="-12" in="shadowBlurInner1" result="shadowOffsetInner1"></feOffset>
      <feComposite in="shadowOffsetInner1" in2="SourceAlpha" operator="arithmetic" k2="-1" k3="1"
        result="shadowInnerInner1"></feComposite>
      <feColorMatrix values="0 0 0 0 0.643137255   0 0 0 0 0.823529412   0 0 0 0 0.329411765  0 0 0 0.5 0" type="matrix"
        in="shadowInnerInner1"></feColorMatrix>
    </filter>
    <path
      d="M85.2174192,451.017677 C116.330502,475.524709 151.39648,479.656448 167.322906,480.635528 L168.21537,481.46279 C183.455277,495.471386 200.316497,505.321502 224.81872,505.321502 C257.298311,505.321502 285.807637,485.662898 297.542095,457.430888 L297.02793,458.896727 C296.830457,459.448097 296.62894,459.997877 296.423411,460.546042 L296.92722,459.176866 L296.64898,459.939513 L296.423411,460.546042 C296.229012,461.064525 296.031024,461.581562 295.829474,462.097132 L296.365591,460.700106 L296.011425,461.629071 L295.829474,462.097132 C295.63221,462.601737 295.431533,463.104937 295.227469,463.606711 L295.649593,462.5549 L295.370466,463.254003 L295.227469,463.606711 C294.994533,464.179478 294.757182,464.750388 294.515454,465.31941 L295.086975,463.951278 L294.737956,464.792956 L294.515454,465.31941 C294.306158,465.81209 294.09358,466.303354 293.877744,466.793182 L294.38259,465.631916 C294.163282,466.144258 293.940427,466.655061 293.714051,467.164305 L293.077452,468.570452 L292.652635,469.485648 L292.466096,469.878926 C292.283246,470.264291 292.098362,470.648719 291.911453,471.032199 C291.624756,471.620415 291.333299,472.2064 291.037124,472.790119 L290.425073,473.980293 L290.235946,474.345074 L289.813502,475.138768 C289.429178,475.857525 289.03764,476.572697 288.638971,477.284213 C288.085647,478.271748 287.518588,479.252241 286.93802,480.225505 C270.769812,507.329895 244.124721,528.827614 211.881794,540.682921 L210.94589,541.037276 C193.443027,547.346761 174.311181,550.821502 154.31872,550.821502 L153.000734,550.81644 L151.696573,550.801092 L150.160178,550.551567 C95.8114353,541.391413 71.5621647,506.024922 77.4123666,444.452094 C79.9083781,446.696179 82.5095863,448.884782 85.2174192,451.017677 Z"
      id="path-adnfck_27m-15"></path>
    <filter x="-4.3%" y="-9.4%" width="108.6%" height="118.4%" filterUnits="objectBoundingBox"
      id="filter-adnfck_27m-16">
      <feGaussianBlur stdDeviation="3" in="SourceAlpha" result="shadowBlurInner1"></feGaussianBlur>
      <feOffset dx="0" dy="-12" in="shadowBlurInner1" result="shadowOffsetInner1"></feOffset>
      <feComposite in="shadowOffsetInner1" in2="SourceAlpha" operator="arithmetic" k2="-1" k3="1"
        result="shadowInnerInner1"></feComposite>
      <feColorMatrix values="0 0 0 0 0.180392157   0 0 0 0 0.509803922   0 0 0 0 0.690196078  0 0 0 0.5 0" type="matrix"
        in="shadowInnerInner1"></feColorMatrix>
    </filter>
    <path
      d="M77.8776918,323.277622 L79.3784102,321.952511 L79.5657018,322.350975 L80.5961594,324.047242 L81.3278055,325.239577 L82.4254649,327.009562 C87.1139151,334.519139 90.9174282,339.944145 93.8369206,343.28586 L94.1894736,343.682543 L94.5856,344.114181 L95.0207986,344.574579 C98.0228,347.707014 103.038348,352.101854 110.067443,357.759099 L111.613258,358.997678 L113.078565,360.162267 C114.32129,361.146323 115.618103,362.16429 116.969004,363.216167 L119.431485,365.124303 C110.892068,381.212761 106.168586,399.388907 107.941714,418.93708 C110.736023,449.743438 144.469248,473.279629 166.058289,479.438684 L166.666216,480.01867 L167.323048,480.635537 L165.838622,480.538444 C149.29628,479.390233 115.397199,474.789568 85.2174192,451.017677 C82.5095863,448.884782 79.9083781,446.696179 77.4137946,444.451868 L77.4378118,444.186092 C77.7120493,439.154792 78.4027527,433.659517 79.5170967,427.707448 L79.9883471,425.236779 L80.2678591,423.734599 L80.5415953,422.220779 C82.5252461,411.082869 83.958146,399.208051 82.9736169,391.042739 C82.2308292,384.882339 74.7381325,367.87208 60.4955266,340.011962 L60.4842376,340.02271 L60.4558049,339.944682 L61.2477958,339.053363 L61.2757198,339.087738 L61.3032024,339.057155 C65.189898,334.426994 70.7147278,329.16715 77.8776918,323.277622 Z"
      id="path-adnfck_27m-17"></path>
    <filter x="-9.0%" y="-6.2%" width="118.6%" height="112.2%" filterUnits="objectBoundingBox"
      id="filter-adnfck_27m-18">
      <feGaussianBlur stdDeviation="3" in="SourceAlpha" result="shadowBlurInner1"></feGaussianBlur>
      <feOffset dx="0" dy="-12" in="shadowBlurInner1" result="shadowOffsetInner1"></feOffset>
      <feComposite in="shadowOffsetInner1" in2="SourceAlpha" operator="arithmetic" k2="-1" k3="1"
        result="shadowInnerInner1"></feComposite>
      <feColorMatrix values="0 0 0 0 0.0509803922   0 0 0 0 0.478431373   0 0 0 0 0.537254902  0 0 0 0.5 0"
        type="matrix" in="shadowInnerInner1"></feColorMatrix>
    </filter>
    <path
      d="M119.431485,365.124303 L119.459042,365.146171 C128.407757,371.898006 134.823741,379.171485 138.706994,386.966609 C144.531874,398.659295 142.787376,409.280914 144.01845,435.263262 C144.807281,451.911899 151.428728,465.393609 166.055957,479.436896 C144.469248,473.279629 110.736023,449.743438 107.941714,418.93708 C106.168586,399.388907 110.892068,381.212761 119.431485,365.124303 Z"
      id="path-adnfck_27m-19"></path>
    <filter x="-16.2%" y="-8.5%" width="134.7%" height="117.3%" filterUnits="objectBoundingBox"
      id="filter-adnfck_27m-20">
      <feGaussianBlur stdDeviation="3" in="SourceAlpha" result="shadowBlurInner1"></feGaussianBlur>
      <feOffset dx="0" dy="-12" in="shadowBlurInner1" result="shadowOffsetInner1"></feOffset>
      <feComposite in="shadowOffsetInner1" in2="SourceAlpha" operator="arithmetic" k2="-1" k3="1"
        result="shadowInnerInner1"></feComposite>
      <feColorMatrix values="0 0 0 0 0.662745098   0 0 0 0 0.843137255   0 0 0 0 0.447058824  0 0 0 0.5 0" type="matrix"
        in="shadowInnerInner1"></feColorMatrix>
    </filter>
    <path
      d="M101.698659,201.392001 C119.117228,218.595312 75.62824,227.169194 70.3187198,259.37033 C66.8058834,280.674953 69.8256988,301.535506 79.3781661,321.951989 L77.8776918,323.277622 C70.7147278,329.16715 65.189898,334.426994 61.3032024,339.057155 L61.2757198,339.087738 L61.2477958,339.053363 C60.9824274,339.34922 60.7184272,339.64633 60.4558049,339.944682 L60.4842376,340.02271 C51.0470695,313.30496 46.3284854,288.789509 46.3284854,266.476358 C46.3284854,252.290665 51.0951753,232.093781 60.2773917,218.58908 C72.7596993,200.230786 91.6627166,191.480081 101.698659,201.392001 Z"
      id="path-adnfck_27m-21"></path>
    <filter x="-16.0%" y="-6.6%" width="132.0%" height="113.1%" filterUnits="objectBoundingBox"
      id="filter-adnfck_27m-22">
      <feGaussianBlur stdDeviation="3" in="SourceAlpha" result="shadowBlurInner1"></feGaussianBlur>
      <feOffset dx="0" dy="-12" in="shadowBlurInner1" result="shadowOffsetInner1"></feOffset>
      <feComposite in="shadowOffsetInner1" in2="SourceAlpha" operator="arithmetic" k2="-1" k3="1"
        result="shadowInnerInner1"></feComposite>
      <feColorMatrix values="0 0 0 0 0.6   0 0 0 0 0.752941176   0 0 0 0 0.254901961  0 0 0 0.5 0" type="matrix"
        in="shadowInnerInner1"></feColorMatrix>
    </filter>
    <path
      d="M198.160875,135.782329 L198.821325,136.682442 L199.490348,137.609874 C209.98166,152.280101 220.860712,173.533037 220.860712,198.670135 C220.860712,239.069676 191.027425,276.804383 169.42854,298.060369 L168.776588,298.699432 C147.131488,319.832435 131.996548,340.506368 120.062166,363.952532 C119.849701,364.341877 119.639461,364.732471 119.431485,365.124303 L116.969004,363.216167 L115.373885,361.970192 C114.066254,360.945443 112.812712,359.954605 111.613258,358.997678 L109.544036,357.337173 C102.442408,351.603195 97.4562629,347.195531 94.5856,344.114181 L94.1894736,343.682543 L93.8369206,343.28586 C90.6928519,339.68709 86.5235284,333.672196 81.3278055,325.239577 L80.5961594,324.047242 L79.5657018,322.350975 L79.3781661,321.951989 L81.2842854,320.279439 C87.0448067,315.241594 93.1738984,310.022664 98.9852364,304.971857 L102.108019,302.140939 C106.63119,298.03046 111.576007,293.494953 116.941556,288.534661 L118.453302,287.017516 L120.144013,285.309339 L121.630439,283.797205 L123.853177,281.517308 C129.000364,276.211214 135.100557,269.735916 141.492418,262.516579 L142.19872,261.717329 L141.658853,262.420137 C141.318619,262.854139 140.968131,263.286492 140.607391,263.71722 L140.658157,263.673728 L142.01127,262.140291 L143.371777,260.585717 C158.599454,243.113071 174.911278,221.927154 182.28575,205.07572 C189.667047,188.20869 194.54347,168.340806 196.914483,145.47108 C197.2336,142.393028 197.932529,138.969138 198.160875,135.782329 Z"
      id="path-adnfck_27m-23"></path>
    <filter x="-6.8%" y="-4.5%" width="113.5%" height="108.8%" filterUnits="objectBoundingBox"
      id="filter-adnfck_27m-24">
      <feGaussianBlur stdDeviation="3" in="SourceAlpha" result="shadowBlurInner1"></feGaussianBlur>
      <feOffset dx="0" dy="-12" in="shadowBlurInner1" result="shadowOffsetInner1"></feOffset>
      <feComposite in="shadowOffsetInner1" in2="SourceAlpha" operator="arithmetic" k2="-1" k3="1"
        result="shadowInnerInner1"></feComposite>
      <feColorMatrix values="0 0 0 0 0.0431372549   0 0 0 0 0.458823529   0 0 0 0 0.266666667  0 0 0 0.5 0"
        type="matrix" in="shadowInnerInner1"></feColorMatrix>
    </filter>
    <path
      d="M124.008982,2.84217094e-14 C120.066853,2.61187287 117.061657,6.82481506 114.903613,12.8215023 C111.914798,21.1267049 112.634418,39.5020466 119.589672,48.9197697 C123.642142,54.4069952 128.902594,58.3476624 132.690874,60.2950857 C135.277007,61.6245273 137.836385,69.1060873 146.02983,81.178921 L146.351918,81.6516109 C149.189238,85.798977 156.96903,94.6238994 161.185955,98.5731692 L163.459444,100.693282 L165.699438,102.76531 C169.775693,106.521545 173.685568,110.048507 177.442737,113.418525 L180.483008,116.144256 C180.602703,128.097299 177.971118,141.114063 172.588251,155.194549 C167.138417,169.45021 158.069422,180.927528 160.460568,177.569829 C162.233878,162.817188 161.674365,151.355201 158.782684,143.183241 C156.870562,137.779539 149.3913,126.694261 141.009119,114.910935 L123.339235,90.3723866 C120.79438,87.1819642 117.457503,82.117441 113.328604,75.178817 L112.718284,74.0505477 L112.318437,73.2954856 L111.91426,72.5182207 C105.584371,60.2289467 99.441943,42.6880099 105.211318,22.4572575 C109.514805,7.366754 115.508448,0.073357974 124.008982,2.84217094e-14 Z"
      id="path-adnfck_27m-25"></path>
    <filter x="-12.3%" y="-5.3%" width="124.6%" height="110.7%" filterUnits="objectBoundingBox"
      id="filter-adnfck_27m-26">
      <feGaussianBlur stdDeviation="3" in="SourceAlpha" result="shadowBlurInner1"></feGaussianBlur>
      <feOffset dx="0" dy="-12" in="shadowBlurInner1" result="shadowOffsetInner1"></feOffset>
      <feComposite in="shadowOffsetInner1" in2="SourceAlpha" operator="arithmetic" k2="-1" k3="1"
        result="shadowInnerInner1"></feComposite>
      <feColorMatrix values="0 0 0 0 0.988235294   0 0 0 0 0.262745098   0 0 0 0 0.145098039  0 0 0 0.5 0" type="matrix"
        in="shadowInnerInner1"></feColorMatrix>
    </filter>
    <path
      d="M37.5257198,377.881221 L37.7337015,378.74991 C43.9279815,404.324287 57.1543393,426.224634 77.4127749,444.45095 C71.5623901,506.025251 95.8116879,541.391456 150.160178,550.551567 L151.696573,550.801092 L153.000734,550.81644 L154.31872,550.821502 C174.311181,550.821502 193.443027,547.346761 210.94589,541.037276 L211.881794,540.682921 C207.00127,542.547338 201.990913,544.182321 196.86757,545.566223 L195.324704,545.973823 C194.341323,546.229078 193.353949,546.474774 192.362652,546.710968 L190.690993,547.098975 L189.567694,547.34945 L188.388071,547.602319 L187.239172,547.839999 L186.054332,548.075004 L184.925121,548.290528 L183.627312,548.526968 L182.505628,548.72247 L181.295767,548.923391 C180.247075,549.093515 179.194698,549.253003 178.138738,549.40175 L176.50075,549.623377 L175.366061,549.766551 L174.012925,549.925896 L172.894315,550.048548 L171.629075,550.177153 C170.577345,550.279725 169.522085,550.371621 168.463622,550.452683 L166.674366,550.579146 L165.55711,550.647467 L164.226031,550.718132 L163.144045,550.767031 L161.723239,550.819576 L160.57708,550.852347 L159.365004,550.87765 L157.829737,550.893348 L156.290606,550.897544 C155.776938,550.897544 155.262657,550.892974 154.747792,550.886167 L153.466179,550.863153 L152.939703,550.84663 C152.587151,550.842779 152.234856,550.832753 151.8823,550.821502 L150.625195,550.776429 L149.101609,550.70841 L147.888548,550.643644 L147.046837,550.590679 C82.4218158,546.537908 45.3657414,503.429727 33.2610749,457.838528 L32.8559706,456.275037 C30.3680991,446.635613 28.9795009,436.553517 28.8318635,426.171174 L28.8284735,425.87126 C28.8218036,425.355902 28.8187198,424.839062 28.8187198,424.321502 C28.8187198,423.624762 28.8243085,422.929328 28.8354434,422.235241 L28.8626965,420.939795 L28.893396,419.916264 L28.923972,419.093066 C28.9367786,418.775561 28.9507404,418.458477 28.9658583,418.141696 L29.0426909,416.701038 L29.109295,415.645043 L29.196864,414.42829 L29.3273634,412.854752 L29.4496222,411.557734 L29.590636,410.211413 L29.6721306,409.490025 L29.8226102,408.24462 L30.0347965,406.640377 L30.1507231,405.824151 L30.4426683,403.91699 L30.638716,402.733767 L30.7767249,401.939727 L31.0117857,400.651015 L31.1955168,399.692677 L31.4727114,398.316738 L31.7665846,396.937264 L32.0558414,395.647821 L32.5026867,393.769159 L32.8928788,392.224509 L33.2066681,391.038143 L33.5990739,389.616147 L33.9307423,388.461997 L34.2146635,387.505397 L34.619086,386.18827 L35.1255724,384.606697 L35.3859462,383.820366 L35.7734573,382.680828 L36.0397319,381.917765 L36.3867877,380.945983 L37.5257198,377.881221 Z"
      id="path-adnfck_27m-27"></path>
    <filter x="-5.2%" y="-6.2%" width="110.2%" height="111.7%" filterUnits="objectBoundingBox"
      id="filter-adnfck_27m-28">
      <feGaussianBlur stdDeviation="3" in="SourceAlpha" result="shadowBlurInner1"></feGaussianBlur>
      <feOffset dx="0" dy="-12" in="shadowBlurInner1" result="shadowOffsetInner1"></feOffset>
      <feComposite in="shadowOffsetInner1" in2="SourceAlpha" operator="arithmetic" k2="-1" k3="1"
        result="shadowInnerInner1"></feComposite>
      <feColorMatrix values="0 0 0 0 0.266666667   0 0 0 0 0.662745098   0 0 0 0 0.501960784  0 0 0 0.5 0" type="matrix"
        in="shadowInnerInner1"></feColorMatrix>
    </filter>
    <path
      d="M126.048978,0.0113175527 C137.976137,2.3028444 135.449704,13.7966617 131.517032,25.187031 L131.397146,25.5321172 C128.176415,34.7465373 125.262789,48.0974983 126.048978,55.7268489 C124.834246,54.6424486 123.314466,53.1375373 121.364064,51.1392265 C112.792323,42.3569316 111.666548,21.8165331 114.903613,12.8215023 C117.052172,6.85117107 119.886741,2.75836442 124.221306,0.0113175527 C124.385736,0.0279750504 125.880602,-0.0210319339 126.048978,0.0113175527 Z"
      id="path-adnfck_27m-29"></path>
    <filter x="-44.4%" y="-17.1%" width="188.5%" height="135.4%" filterUnits="objectBoundingBox"
      id="filter-adnfck_27m-30">
      <feGaussianBlur stdDeviation="3" in="SourceAlpha" result="shadowBlurInner1"></feGaussianBlur>
      <feOffset dx="0" dy="-12" in="shadowBlurInner1" result="shadowOffsetInner1"></feOffset>
      <feComposite in="shadowOffsetInner1" in2="SourceAlpha" operator="arithmetic" k2="-1" k3="1"
        result="shadowInnerInner1"></feComposite>
      <feColorMatrix values="0 0 0 0 0.976470588   0 0 0 0 0.874509804   0 0 0 0 0.541176471  0 0 0 0.5 0" type="matrix"
        in="shadowInnerInner1"></feColorMatrix>
    </filter>
    <path
      d="M180.482988,116.142259 C186.4725,121.516524 192.365129,128.063214 198.160875,135.782329 C197.932529,138.969138 197.2336,142.393028 196.914483,145.47108 C194.54347,168.340806 189.667047,188.20869 182.28575,205.07572 C174.471011,222.933209 156.619919,245.658182 140.658157,263.673728 L140.607391,263.71722 C146.953219,256.140232 150.126133,248.060409 150.126133,239.477752 C150.126133,232.193573 146.189002,220.514004 148.990255,202.579759 C151.791509,184.645514 164.513502,176.316454 172.588251,155.194549 C177.971417,141.113279 180.602996,128.095849 180.482988,116.142259 Z"
      id="path-adnfck_27m-31"></path>
    <filter x="-16.3%" y="-6.9%" width="132.8%" height="113.2%" filterUnits="objectBoundingBox"
      id="filter-adnfck_27m-32">
      <feGaussianBlur stdDeviation="3" in="SourceAlpha" result="shadowBlurInner1"></feGaussianBlur>
      <feOffset dx="0" dy="-12" in="shadowBlurInner1" result="shadowOffsetInner1"></feOffset>
      <feComposite in="shadowOffsetInner1" in2="SourceAlpha" operator="arithmetic" k2="-1" k3="1"
        result="shadowInnerInner1"></feComposite>
      <feColorMatrix values="0 0 0 0 0.980392157   0 0 0 0 0.682352941   0 0 0 0 0.11372549  0 0 0 0.5 0" type="matrix"
        in="shadowInnerInner1"></feColorMatrix>
    </filter>
    <path
      d="M132.690874,60.2950857 L134.890254,61.5490894 C158.277427,74.9829486 171.40669,85.7811727 174.278509,93.9437971 C177.296768,102.522652 179.364928,109.922139 180.482988,116.142259 L177.629806,113.610274 C164.833757,102.214967 156.572204,94.2947961 152.845149,89.8497615 L152.018408,88.8553831 C138.882622,72.9203816 136.807289,63.8067674 133.01586,60.5591246 L132.898038,60.4605513 C132.827376,60.402836 132.758385,60.3477657 132.690874,60.2950857 Z"
      id="path-adnfck_27m-33"></path>
    <filter x="-19.5%" y="-16.9%" width="139.9%" height="135.4%" filterUnits="objectBoundingBox"
      id="filter-adnfck_27m-34">
      <feGaussianBlur stdDeviation="3" in="SourceAlpha" result="shadowBlurInner1"></feGaussianBlur>
      <feOffset dx="0" dy="-12" in="shadowBlurInner1" result="shadowOffsetInner1"></feOffset>
      <feComposite in="shadowOffsetInner1" in2="SourceAlpha" operator="arithmetic" k2="-1" k3="1"
        result="shadowInnerInner1"></feComposite>
      <feColorMatrix values="0 0 0 0 0.97254902   0 0 0 0 0.850980392   0 0 0 0 0.498039216  0 0 0 0.5 0" type="matrix"
        in="shadowInnerInner1"></feColorMatrix>
    </filter>
    <path
      d="M295.096201,256.339209 C295.493192,258.913281 294.790081,261.560134 292.986868,264.279767 C295.508201,259.825234 296.23887,256.504519 292.222908,254.050261 C290.516081,253.007175 288.703992,252.478574 286.846351,252.401987 L286.381026,252.392221 C272.861085,252.380006 257.20827,275.853157 262.175856,299.005407 C267.074134,321.834642 274.335293,381.598001 260.361635,419.980936 C258.508149,424.835476 256.311711,429.481141 253.725086,433.837656 C253.030881,434.937596 252.310347,436.004294 251.559601,437.033693 C246.443894,444.048183 241.044351,450.070409 235.522187,455.205209 C230.585123,459.691298 225.163892,463.943448 219.425728,467.629845 C214.167938,470.937227 208.938544,473.552781 203.870132,475.563376 L203.624984,475.833591 C267.420703,406.460163 230.78193,317.569058 242.648791,278.906153 C253.235409,244.414353 293.200677,244.048706 295.096201,256.339209 Z"
      id="path-adnfck_27m-35"></path>
    <filter x="-10.2%" y="-4.2%" width="120.6%" height="108.3%" filterUnits="objectBoundingBox"
      id="filter-adnfck_27m-36">
      <feGaussianBlur stdDeviation="3" in="SourceAlpha" result="shadowBlurInner1"></feGaussianBlur>
      <feOffset dx="0" dy="-12" in="shadowBlurInner1" result="shadowOffsetInner1"></feOffset>
      <feComposite in="shadowOffsetInner1" in2="SourceAlpha" operator="arithmetic" k2="-1" k3="1"
        result="shadowInnerInner1"></feComposite>
      <feColorMatrix values="0 0 0 0 0.968627451   0 0 0 0 0.635294118   0 0 0 0 0.792156863  0 0 0 0.5 0" type="matrix"
        in="shadowInnerInner1"></feColorMatrix>
    </filter>
  </defs>
  <g id="Page-1" stroke="none" stroke-width="1" fill="none" fill-rule="evenodd">
    <g id="Group-3">
      <g id="Path-Copy">
        <use fill="black" fill-opacity="1" filter="url(#filter-adnfck_27m-2)" xlink:href="#path-adnfck_27m-1"></use>
        <path stroke="#FFFFFF" stroke-width="1"
          d="M88.269887,128.209149 C91.9978091,128.209149 95.3728091,129.720188 97.8158286,132.163207 C100.258848,134.606227 101.769887,137.981227 101.769887,141.709149 C101.769887,145.437071 100.258848,148.812071 97.8158286,151.25509 C95.3728091,153.69811 91.9978091,155.209149 88.269887,155.209149 C84.5419649,155.209149 81.1669649,153.69811 78.7239455,151.25509 C76.280926,148.812071 74.769887,145.437071 74.769887,141.709149 C74.769887,137.981227 76.280926,134.606227 78.7239455,132.163207 C81.1669649,129.720188 84.5419649,128.209149 88.269887,128.209149 Z"
          stroke-linejoin="square"></path>
      </g>
      <g id="Path-Copy-2">
        <use fill="black" fill-opacity="1" filter="url(#filter-adnfck_27m-4)" xlink:href="#path-adnfck_27m-3"></use>
        <path stroke="#FFFFFF" stroke-width="1"
          d="M191.769887,9.2091489 C194.807453,9.2091489 197.557453,10.4403658 199.548062,12.4309743 C201.53867,14.4215828 202.769887,17.1715828 202.769887,20.2091489 C202.769887,23.246715 201.53867,25.996715 199.548062,27.9873235 C197.557453,29.977932 194.807453,31.2091489 191.769887,31.2091489 C188.732321,31.2091489 185.982321,29.977932 183.991712,27.9873235 C182.001104,25.996715 180.769887,23.246715 180.769887,20.2091489 C180.769887,17.1715828 182.001104,14.4215828 183.991712,12.4309743 C185.982321,10.4403658 188.732321,9.2091489 191.769887,9.2091489 Z"
          stroke-linejoin="square"></path>
      </g>
      <g id="Path">
        <use fill="black" fill-opacity="1" filter="url(#filter-adnfck_27m-6)" xlink:href="#path-adnfck_27m-5"></use>
        <use stroke="#FFFFFF" stroke-width="1" xlink:href="#path-adnfck_27m-5"></use>
      </g>
      <g id="Path-Copy-3">
        <use fill="black" fill-opacity="1" filter="url(#filter-adnfck_27m-8)" xlink:href="#path-adnfck_27m-7"></use>
        <path stroke="#FFFFFF" stroke-width="1"
          d="M329.269887,300.209149 C333.826236,300.209149 337.951236,302.055974 340.937149,305.041887 C343.923062,308.0278 345.769887,312.1528 345.769887,316.709149 C345.769887,321.265498 343.923062,325.390498 340.937149,328.376411 C337.951236,331.362323 333.826236,333.209149 329.269887,333.209149 C324.713538,333.209149 320.588538,331.362323 317.602625,328.376411 C314.616712,325.390498 312.769887,321.265498 312.769887,316.709149 C312.769887,312.1528 314.616712,308.0278 317.602625,305.041887 C320.588538,302.055974 324.713538,300.209149 329.269887,300.209149 Z"
          stroke-linejoin="square"></path>
      </g>
      <g id="Path">
        <use fill="black" fill-opacity="1" filter="url(#filter-adnfck_27m-10)" xlink:href="#path-adnfck_27m-9"></use>
        <use stroke="#FFFFFF" stroke-width="1" xlink:href="#path-adnfck_27m-9"></use>
      </g>
      <g id="Path">
        <use fill="black" fill-opacity="1" filter="url(#filter-adnfck_27m-12)" xlink:href="#path-adnfck_27m-11"></use>
        <use stroke="#FFFFFF" stroke-width="1" xlink:href="#path-adnfck_27m-11"></use>
      </g>
      <g id="Path">
        <use fill="black" fill-opacity="1" filter="url(#filter-adnfck_27m-14)" xlink:href="#path-adnfck_27m-13"></use>
        <use stroke="#FFFFFF" stroke-width="1" xlink:href="#path-adnfck_27m-13"></use>
      </g>
      <g id="Path">
        <use fill="black" fill-opacity="1" filter="url(#filter-adnfck_27m-16)" xlink:href="#path-adnfck_27m-15"></use>
        <use stroke="#FFFFFF" stroke-width="1" xlink:href="#path-adnfck_27m-15"></use>
      </g>
      <g id="Path">
        <use fill="black" fill-opacity="1" filter="url(#filter-adnfck_27m-18)" xlink:href="#path-adnfck_27m-17"></use>
        <use stroke="#FFFFFF" stroke-width="1" xlink:href="#path-adnfck_27m-17"></use>
      </g>
      <g id="Path">
        <use fill="black" fill-opacity="1" filter="url(#filter-adnfck_27m-20)" xlink:href="#path-adnfck_27m-19"></use>
        <use stroke="#FFFFFF" stroke-width="1" xlink:href="#path-adnfck_27m-19"></use>
      </g>
      <g id="Path">
        <use fill="black" fill-opacity="1" filter="url(#filter-adnfck_27m-22)" xlink:href="#path-adnfck_27m-21"></use>
        <use stroke="#FFFFFF" stroke-width="1" xlink:href="#path-adnfck_27m-21"></use>
      </g>
      <g id="Path">
        <use fill="black" fill-opacity="1" filter="url(#filter-adnfck_27m-24)" xlink:href="#path-adnfck_27m-23"></use>
        <use stroke="#FFFFFF" stroke-width="1" xlink:href="#path-adnfck_27m-23"></use>
      </g>
      <g id="Path">
        <use fill="black" fill-opacity="1" filter="url(#filter-adnfck_27m-26)" xlink:href="#path-adnfck_27m-25"></use>
        <use stroke="#FFFFFF" stroke-width="1" xlink:href="#path-adnfck_27m-25"></use>
      </g>
      <g id="Path">
        <use fill="black" fill-opacity="1" filter="url(#filter-adnfck_27m-28)" xlink:href="#path-adnfck_27m-27"></use>
        <use stroke="#FFFFFF" stroke-width="1" xlink:href="#path-adnfck_27m-27"></use>
      </g>
      <g id="Path-Copy-6">
        <use fill="black" fill-opacity="1" filter="url(#filter-adnfck_27m-30)" xlink:href="#path-adnfck_27m-29"></use>
        <use stroke="#FFFFFF" stroke-width="1" xlink:href="#path-adnfck_27m-29"></use>
      </g>
      <g id="Path-Copy-7">
        <use fill="black" fill-opacity="1" filter="url(#filter-adnfck_27m-32)" xlink:href="#path-adnfck_27m-31"></use>
        <use stroke="#FFFFFF" stroke-width="1" xlink:href="#path-adnfck_27m-31"></use>
      </g>
      <g id="Path-Copy-8">
        <use fill="black" fill-opacity="1" filter="url(#filter-adnfck_27m-34)" xlink:href="#path-adnfck_27m-33"></use>
        <use stroke="#FFFFFF" stroke-width="1" xlink:href="#path-adnfck_27m-33"></use>
      </g>
      <g id="Path-Copy-9">
        <use fill="black" fill-opacity="1" filter="url(#filter-adnfck_27m-36)" xlink:href="#path-adnfck_27m-35"></use>
        <use stroke="#FFFFFF" stroke-width="1" xlink:href="#path-adnfck_27m-35"></use>
      </g>
    </g>
  </g>
</svg>
