<svg xmlns="http://www.w3.org/2000/svg" viewBox="0 0 362 565"><g fill="none" fill-rule="evenodd" stroke="#000" stroke-width="7"><path d="m132.8 3.5 2.2.2c3.1.6 5.4 1.8 7.1 3.3 2 1.8 3.2 4 3.8 6.6 1.1 5.2-.5 12.1-2.8 19l-.4 1.1c-2.9 8.3-5.6 20-5.3 27.5.7.7 3.6 2.4 5 3l2.2 1.3 1.4.9c23.8 13.7 36.6 25 39.6 33.4 2.9 8.3 5 15.4 6.1 21.6 3.9 3.5 7.8 7.6 11.6 12.1l.4.6.1-.8.3-1.8c3.8-26 10.7-44.5 19-55.6a50 50 0 0 1 26.6-19.1c5-1.3 9.8-1 13.6.5 4 1.6 7 4.6 8.7 9a12 12 0 0 1 0 9.3 39.5 39.5 0 0 1-7 9.6l-1.3 1.4a90.7 90.7 0 0 1-3.7 4l-2.4 2.4-.9.9a36 36 0 0 0-10.9 19.4c-1.8 10-1.4 27-1 46 .6 26.4 1.2 57-3.4 80.5-4 20.2-21 51.6-38.4 82.3l-1.2 2-.6 1-1.2 2.2-4.1 7.2-1 1.6-.9 1.6c-14.5 25.4-27.8 48.6-31.4 62a117.7 117.7 0 0 0-2.6 48.8 62 62 0 0 0 16 35v-.2l.3.1c2.1.6 4 1 5.9 1l.5.1c7.5.4 17-1 27.2-4.9l1-1.2c40.6-45.8 37.5-100 34.9-141.9v-1.2c-1.3-20.4-2.3-38 1.5-50.4a44.8 44.8 0 0 1 25.3-29c7.3-3 14.8-4 20.7-3 3.5.4 6.5 1.5 8.6 3 2.7 1.8 4.2 4.2 4.7 7 .5 3.2-.3 6.5-2.4 10a75.8 75.8 0 0 0-14.2 53.3c1 11.8 4.7 20.1 8.9 29.6 6.8 15.7 15 34.2 16 74a99.8 99.8 0 0 1-5.7 34.9l-.9 2.4-.7 2-.5 1.1-.5 1.4-1 2.6-.7 1.4-.6 1.5-.5.9-.6 1.3-1 2.1-.9 1.6-.4.8a127.7 127.7 0 0 1-3 5.2 148.5 148.5 0 0 1-76.8 62l-1 .3c-5 2-9.6 3.4-14.3 4.7l-1.6.4-3 .7-1.7.4-1.2.3-1.2.3-1.2.2-1.2.2-1.1.3-1.4.2-1.1.2-1.2.2-3.3.5-1.6.2-1.2.2-1.4.1-1.1.2H180l-3.3.4-1.8.1h-1.1l-1.4.1h-1.1l-1.5.1h-1.1l-1.3.1h-7.6l-1.3-.1h-.5A168 168 0 0 1 81.9 541a146.4 146.4 0 0 1-53.6-50.4 114.2 114.2 0 0 1-18.5-65c.8-17.8 3-32 5-44.9 2.4-15.8 4.6-29.4 3-45.2a45.3 45.3 0 0 0-9.4-24.4c-2.2-3-3.6-5.4-3.8-7.5-.3-2.3.3-4.6 3-7.1a8.8 8.8 0 0 1 7.3-2c2.3.2 4.9 1.2 7.6 3A47 47 0 0 1 36 312.3c6.2 10 11 24.1 11 41.3v3.4l.5 14v.5l.5-.8a122 122 0 0 1 16.4-24.3v-.2l-.1-.6a224.6 224.6 0 0 1-13.5-71v-1.1c0-14.8 5-35.8 14.6-49.9A56.4 56.4 0 0 1 88.9 203c4.4-1.8 8.7-2.5 12.7-2 4 .4 7.6 2 10.6 5 2.3 2.3 3.8 4.5 4.5 6.7.9 2.6.8 5.1 0 7.6a43.8 43.8 0 0 1-13 15.2c-8.7 7.6-19.5 17-22 31.5a102 102 0 0 0 6.6 55.5l.3.7.3-.2 6-5.2 2-1.8 7.8-6.6 3-2.8 14.8-13.6 1.5-1.4 1.6-1.7 1.5-1.5 2.2-2.3 1.8-1.9c4.6-4.6 9.7-10.1 15-16.1l1.4-1.6.2-.3a33 33 0 0 0 7-19.2v-.5c0-2-.4-4.5-.8-7.4-1-7.3-2.4-17.1-.4-30a61.4 61.4 0 0 1 11.6-25.7v-.7a74 74 0 0 0-1.6-31.3c-1.9-5.3-9.2-16-17.3-27.4l-17.7-24.5c-2.6-3.3-6-8.5-10.2-15.6l-.7-1.2-.4-.8-.4-.8-.4-.8a70.2 70.2 0 0 1-6.6-51.8 50 50 0 0 1 8.5-18 17.4 17.4 0 0 1 14.5-7Z"/><path fill="#FFF" d="M96.3 131.2a17.4 17.4 0 0 1 12.3 30 17.4 17.4 0 0 1-29.8-12.5 17.4 17.4 0 0 1 17.5-17.5Zm103.5-119a15 15 0 0 1 10.6 25.6 15 15 0 0 1-25.6-10.6 15 15 0 0 1 15-15Z"/><path fill="#FFF" stroke-linejoin="round" d="m68.5 347 1.7 3.3c13.1 26 20 41.9 20.8 47.8 1 8.5-.6 21.1-2.7 32.7l-.3 1.5-.5 2.4a119 119 0 0 0-2 16.5v.3a127 127 0 0 1-39.8-65.7l-.2-.9 1-2.7.6-1.4.2-.6A127 127 0 0 1 68.5 347Z"/><path fill="#FFF" d="M337.3 303.2a20.4 20.4 0 0 1 14.5 35 20.4 20.4 0 0 1-35-14.5 20.4 20.4 0 0 1 20.5-20.5ZM173.6 486l.5.5c3.1.9 6 1.4 8.4 1.5 19.7 1.1 51.8-9.3 77-44 25.3-34.6 16.4-111.4 10.7-138-5.7-26.6 15.8-53.6 30-45 4 2.5 3.3 5.9.8 10.3a78.6 78.6 0 0 0-14.5 55.2c2.8 31.3 23.3 39.3 24.8 103.4a96.3 96.3 0 0 1-5.4 33.6l-.4 1a78.8 78.8 0 0 1-72.7 47.8c-22.9 0-40.3-8.7-58-25.2l-.7-.6"/><path fill="#FFF" d="M268.7 67.5c2.3 6.1-1 9.2-7.6 16.8a87.1 87.1 0 0 1-3.6 3.8l-2.4 2.4a40.4 40.4 0 0 0-12.7 22.2c-4.4 24 3.6 85.7-4.4 126.4-8 40.8-70.1 127.7-78.8 159.8-8.6 32-3.7 69.9 14.4 87.1l.5.5c-14.7-14-21.3-27.6-22-44.2-1.3-26 .4-36.6-5.4-48.3a63.4 63.4 0 0 0-19.2-21.8l.6-1.2a241 241 0 0 1 47.7-64.3l1.6-1.6c21.6-21.3 51.5-59 51.5-99.4 0-25.7-11.4-47.3-22-62l-.5-.6c-.2-.2-.2-.7-.1-1l.3-3.3.1-.5.3-2.7.3-1.8c3.6-26.1 10.3-44.7 18.7-55.8 15.5-20.5 37.6-24 42.7-10.5ZM158 557.8h.2a169.4 169.4 0 0 1-74.7-20c-38.7-20.7-72.1-64.9-70.2-112 1.7-40 10.8-61.8 8-90.6-2.5-26-19-29.2-11.3-36.1 7.6-7 33.6 15.7 33.6 54.5v1.7c0 12.5.7 22.4 2 29.6l-1.2 3-.4 1-.2.8-.4 1.1-.3.8-.5 1.6-.4 1.3-.3 1-.3 1.1-.4 1.5-.3 1.2-.4 1.5-.4 1.9-.3 1.3-.3 1.3-.3 1.4-.2 1-.2 1.3-.2.8-.2 1.1-.2 2-.2.8-.2 1.6-.1 1.2-.1.7-.2 1.4v1.3l-.2 1.6v1.2l-.2 1v2.5l-.1.7v2.4a130 130 0 0 0 0 3.6v.3c0 10.4 1.5 20.5 4 30.1l.4 1.6A121.7 121.7 0 0 0 155 557.6h.9l1.2.1 1.5.1h-.5Z"/><path fill="#FFF" d="M93.2 458a147.5 147.5 0 0 0 82.1 29.7c15.5 14.4 32.5 24.6 57.5 24.6 32.5 0 61-19.6 72.7-47.8l-.5 1.4-.6 1.7.5-1.4-.5 1.5v-.1l-.6 1.5.6-1.4-.8 1.9.2-.5-.6 1.5.4-1-.5 1.4.1-.4-.7 1.7.6-1.3-.7 1.7.1-.4-.6 1.5.5-1.1-.7 1.5-.6 1.4a120.7 120.7 0 0 1-.9 1.8l.3-.5a122 122 0 0 1-2 4.1v-.2l-.6 1.2.5-1a123.5 123.5 0 0 1-3.5 6.3 145 145 0 0 1-75 60.4l-1 .4a167 167 0 0 1-56.6 9.7h-2.6l-1.5-.2c-54.4-9.2-78.6-44.5-72.8-106.1 2.5 2.2 5.1 4.4 7.8 6.5Z"/><path fill="#FFF" d="m87.4 329 .2.4 1 1.7.7 1.2c5.2 8.4 9.4 14.4 12.5 18l.4.4.4.4c3 3.3 8.3 8 16 14.1l1 .8 5.4 4.2 2.4 2A95.4 95.4 0 0 0 116 426c2.8 30.8 36.6 54.3 58.2 60.5l1.2 1.1a147.5 147.5 0 0 1-89.9-36.1v-.3c.3-5 1-10.5 2.1-16.5l.5-2.4.3-1.5A124 124 0 0 0 91 398c-.8-6.2-8.3-23.2-22.5-51v-.1l.7-1v.1h.1a130 130 0 0 1 16.6-15.8l1.5-1.3Z"/><path fill="#FFF" d="M127.4 372.2c9 6.7 15.4 14 19.3 21.8 5.8 11.7 4 22.3 5.3 48.3.8 16.6 7.4 30.1 22 44.2-21.5-6.2-55.3-29.7-58-60.5a95.4 95.4 0 0 1 11.4-53.8Zm-17.7-163.8c17.4 17.2-26 25.8-31.4 58a105 105 0 0 0 9 62.6l-1.4 1.3A127.7 127.7 0 0 0 68.5 347a222.4 222.4 0 0 1-14.2-73.5c0-14.2 4.8-34.4 14-47.9 12.5-18.3 31.4-27 41.4-17.2Z"/><path fill="#FFF" stroke-linejoin="round" d="m206.2 142.8.6 1 .7.8c10.5 14.7 21.4 36 21.4 61.1 0 40.4-29.9 78.1-51.5 99.4l-.6.6a242.6 242.6 0 0 0-49.4 66.5l-2.4-2-1.6-1.2-3.8-3-2-1.6a155.4 155.4 0 0 1-15-13.3l-.4-.4-.4-.4c-3.1-3.6-7.3-9.6-12.5-18l-.7-1.2-1-1.7-.2-.4 1.9-1.7L107 312l3.1-2.8 14.8-13.6 1.6-1.6 1.6-1.7 1.5-1.5 2.3-2.3a549 549 0 0 0 17.6-19l.7-.8-.5.7-1 1.3 1.3-1.5 1.4-1.6c15.2-17.5 31.5-38.6 38.9-55.5a200 200 0 0 0 14.6-59.6c.3-3 1-6.5 1.3-9.7ZM132 7c-4 2.6-7 6.9-9.1 12.8-3 8.4-2.3 26.7 4.7 36.1 4 5.5 9.3 9.5 13 11.4 2.7 1.4 5.2 8.8 13.4 21l.4.4a142 142 0 0 0 14.8 16.9l2.3 2.1 2.2 2c4 3.8 8 7.4 11.7 10.7l3 2.8c.2 12-2.4 25-7.8 39-5.5 14.3-14.5 25.8-12.1 22.4a78.8 78.8 0 0 0-1.7-34.4A172 172 0 0 0 149 122l-17.7-24.5a175 175 0 0 1-10-15.2l-.6-1.1-.4-.8-.4-.8a67.1 67.1 0 0 1-6.7-50C117.5 14.4 123.5 7 132 7Z"/><path fill="#FFF" d="m45.5 385 .2.8a127 127 0 0 0 39.7 65.7c-5.8 61.6 18.4 97 72.8 106l1.5.3h2.6c20 0 39.1-3.4 56.6-9.7l1-.4a164 164 0 0 1-15 4.9l-1.6.4-3 .7-1.6.4-1.1.3-1.2.2-1.2.3-1.1.2-1.2.2-1.3.3-1 .2-1.3.2-3.2.4-1.6.3h-1.1l-1.4.3h-1l-1.3.2-3.1.3-1.8.1h-1.1l-1.4.1h-1l-1.5.1h-1.1l-1.2.1H160l-1.3-.1h-1.5l-1.2-.1h-.9a121.7 121.7 0 0 1-113.7-92.8l-.4-1.6c-2.5-9.6-4-19.7-4-30.1v-.3a119.8 119.8 0 0 1 0-3.6V425l.1-1.4.1-1 .1-1.2.1-1.6.1-1.3.2-1.4v-.7l.2-1.2.2-1.6.2-.8.2-2 .2-1.1.2-.8.2-1.3.2-1 .3-1.4.3-1.3.3-1.3.4-1.9.4-1.5.3-1.2.4-1.5.3-1.1.3-1 .4-1.3.5-1.6.3-.8.4-1 .2-.9.4-1 1.1-3ZM134 7c12 2.3 9.4 13.8 5.5 25.2l-.1.4a79.8 79.8 0 0 0-4.7 29.3c-1.2-1-3.4-1.7-5.3-3.7-8.6-8.8-9.7-29.4-6.5-38.4 2.2-6 5-10 9.3-12.8h1.8Zm54.5 116.2c6 5.3 11.9 11.9 17.7 19.6-.3 3.2-1 6.6-1.3 9.7a200 200 0 0 1-14.6 59.6c-7.8 17.9-25.7 40.6-41.6 58.6a37.2 37.2 0 0 0 9.4-24.2c0-7.3-4-19-1.1-36.9 2.8-18 15.5-26.3 23.6-47.4 5.4-14 8-27 7.9-39Zm-47.8-55.9 2.2 1.3c23.4 13.4 36.5 24.2 39.4 32.4 3 8.6 5 16 6.2 22.2l-2.9-2.6A293.2 293.2 0 0 1 160.8 97l-.8-1c-13.1-16-15.2-25-19-28.3l-.1-.1-.2-.2Z"/><path fill="#FFF" stroke-linejoin="round" d="M303.1 263.4c.4 2.5-.3 5.2-2.1 8 2.5-4.5 3.2-7.9-.8-10.3a11 11 0 0 0-5.4-1.7h-.4c-13.5 0-29.2 23.5-24.2 46.6 4.9 22.9 12.1 82.6-1.8 121a90 90 0 0 1-8.8 17c-5.2 7-10.6 13.1-16 18.2a123 123 0 0 1-16.2 12.5 94.6 94.6 0 0 1-15.5 7.9l-.3.3c63.8-69.4 27.2-158.3 39-197 10.6-34.5 50.6-34.8 52.5-22.5Z"/></g></svg>