<svg xmlns="http://www.w3.org/2000/svg" viewBox="0 0 501 616"><g fill="none" fill-rule="evenodd"><path fill="#FFB84A" d="M183.3 127.7a14 14 0 1 1 0 28 14 14 0 0 1 0-28Z"/><path fill="#EAE880" d="M286.8 8.7a11.5 11.5 0 1 1 0 23 11.5 11.5 0 0 1 0-23Z"/><path fill="#149C8E" d="m155.5 340 1.7 3.3c13.1 26 20 41.8 20.8 47.7 1 8.6-.6 21.2-2.7 32.7l-.3 1.5-.5 2.5a119 119 0 0 0-2 16.5v.3a127.1 127.1 0 0 1-39.8-65.7l-.2-1 1-2.6.6-1.4.2-.6a127 127 0 0 1 21.2-33.3Z"/><path fill="#EE61A6" d="M424.3 333.7a17 17 0 1 0 0-34 17 17 0 0 0 0 34Z"/><path fill="#605293" d="m260.6 479 .5.5c3.1.8 6 1.3 8.4 1.5 19.7 1.1 51.8-9.3 77-44 25.3-34.6 16.4-111.4 10.7-138-5.7-26.6 15.8-53.6 30-45 4 2.5 3.3 5.8.8 10.3a78.6 78.6 0 0 0-14.5 55.1c2.8 31.4 23.3 39.4 24.8 103.5a96.3 96.3 0 0 1-5.4 33.6l-.4 1a78 78 0 0 1-72.7 48c-24.6-.4-40.4-8.8-58.1-25.3l-.6-.7"/><path fill="#B0DAB6" d="M355.7 60.5c2.3 6-1 9.2-7.6 16.8a87.1 87.1 0 0 1-3.6 3.7l-2.4 2.5a40.4 40.4 0 0 0-12.7 22.2C325 129.6 333 191.3 325 232c-8 40.8-70.1 127.7-78.8 159.8-8.6 32-3.7 69.9 14.4 87l.5.6c-14.7-14.1-21.3-27.6-22-44.2-1.3-26 .4-36.6-5.4-48.3a63.4 63.4 0 0 0-19.2-21.9 241.8 241.8 0 0 1 48.4-65.5l1.5-1.5c21.6-21.3 51.5-59 51.5-99.4 0-25.7-11.4-47.3-22-62l-.7-1 .8-7.1.3-1.8C297.9 100.6 304.6 82 313 71c15.5-20.5 37.6-24.1 42.7-10.5Z"/><path fill="#C8E297" d="M245 550.8h.2a169.4 169.4 0 0 1-74.7-20c-38.7-20.8-72.1-65-70.2-112.1 1.7-39.9 10.8-61.7 8-90.6-2.5-26-19-29.2-11.3-36 7.6-7 33.6 15.6 33.6 54.5v1.7c0 12.5.7 22.3 2 29.6l-1.2 3-.4 1-.2.8-.4 1.1-.3.8-.5 1.6-.4 1.3-.3 1-.3 1.1-.4 1.4-.3 1.2-.4 1.6-.4 1.8-.3 1.3-.3 1.4-.3 1.4-.2 1-.2 1.2-.2.8-.2 1.2-.2 2-.2.7-.2 1.6-.1 1.3-.1.7-.2 1.4v1.3l-.2 1.5v1.2l-.2 1.1v2.4l-.1.8v2.3a130 130 0 0 0 0 3.7v.3c0 10.4 1.5 20.4 4 30l.4 1.6A121.7 121.7 0 0 0 242 550.6h.9l1.2.1h1.5-.5Z"/><path fill="#2D619D" d="M180.1 450.8c20.8 16.4 48.1 26.3 82.2 29.8 15.5 14.5 32.5 24.7 57.5 24.7 32.5 0 61-19.6 72.7-47.9l-.5 1.5-.1.4-.3.7-.1.4-.7 1.8.6-1.5-.4.9-.3.9-.4 1-.8 1.9.6-1.4-.4.8-.5 1.2-.3.7-.6 1.3-.4.9-.4.9-.6 1.3-.5 1-.4.7v.2a123.1 123.1 0 0 1-2.3 4.2 144.3 144.3 0 0 1-76.8 63.5l-1 .3a167 167 0 0 1-56.6 9.8h-2.6l-1.5-.2C190.7 541.4 166 505.7 172 444a157 157 0 0 0 8.1 6.8Z"/><path fill="#075262" d="m172.9 323.3 1.5-1.3.2.4 1 1.6.7 1.2 1.1 1.8c4.7 7.5 8.5 13 11.4 16.3l.4.4.4.4.4.5c3.1 3.2 8.3 7.7 15.6 13.6l1 .8 5.4 4.2 2.4 2a95.4 95.4 0 0 0-11.5 53.7c2.8 30.9 36.6 54.4 58.2 60.6l1.2 1.1h-1a147.1 147.1 0 0 1-88.9-36.1v-.3c.3-5 1-10.5 2.1-16.5l.5-2.5.3-1.5.2-1.5c2-11.1 3.5-23 2.5-31.2-.8-6.1-8.3-23.1-22.5-51l.7-1h.1c3.9-4.6 9.4-9.8 16.6-15.7Z"/><path fill="#399463" d="M214.4 365.1a63 63 0 0 1 19.3 21.9c5.8 11.7 4 22.3 5.3 48.3.8 16.6 7.5 30.1 22.1 44.2-21.6-6.2-55.4-29.7-58.2-60.6a95.4 95.4 0 0 1 11.5-53.8Z"/><path fill="#98C042" d="M196.7 201.4c17.4 17.2-26 25.8-31.4 58-3.5 21.3-.5 42.1 9 62.6l-1.4 1.3a127.7 127.7 0 0 0-17.4 16.7 222.4 222.4 0 0 1-14.2-73.5c0-14.2 4.8-34.4 14-48 12.5-18.3 31.4-27 41.4-17.1Z"/><path fill="#3F813C" d="m293.2 135.8.6.9.7 1a105.8 105.8 0 0 1 21.4 61c0 40.4-29.9 78.1-51.5 99.4l-.6.6a242.6 242.6 0 0 0-49.4 66.4l-2.4-1.9-1.6-1.2-3.8-3-2-1.7a144.7 144.7 0 0 1-15-13.2l-.4-.4-.4-.4c-3.1-3.6-7.3-9.6-12.5-18l-.7-1.3-1-1.6-.2-.4 1.9-1.7L194 305l3.1-2.9 14.8-13.6 1.6-1.5 1.6-1.7 1.5-1.5 2.3-2.3c5.1-5.3 11.2-11.8 17.6-19l.7-.8-.5.7-1 1.3 1.3-1.6 1.4-1.5c15.2-17.5 31.5-38.7 38.9-55.5a200 200 0 0 0 14.6-59.6c.3-3.1 1-6.5 1.3-9.7Z"/><path fill="#FD6E3B" d="M219 0c-4 2.6-7 6.8-9.1 12.8-3 8.3-2.3 26.7 4.7 36.1a41 41 0 0 0 13 11.4c2.7 1.3 5.2 8.8 13.4 20.9l.4.5a142 142 0 0 0 14.8 16.9l2.3 2 2.2 2.2 11.7 10.6 3 2.7c.2 12-2.4 25-7.8 39-5.5 14.4-14.5 25.8-12.1 22.5a78.8 78.8 0 0 0-1.7-34.4 172 172 0 0 0-17.8-28.3l-17.7-24.5a175 175 0 0 1-10-15.2l-.6-1.1-.4-.8-.4-.8a67.1 67.1 0 0 1-6.7-50C204.5 7.4 210.5 0 219 0Z"/><path fill="#119496" d="m132.5 377.9.2.8a127.6 127.6 0 0 0 39.7 65.8c-5.8 61.5 18.4 96.9 72.8 106l1.5.3h2.6c20 0 39.1-3.5 56.6-9.8l1-.3c-4.9 1.8-10 3.5-15 4.9l-1.6.4-3 .7-1.6.4-1.1.2-1.2.3-1.2.2-1.1.3-1.2.2-1.3.2-1 .2-1.3.2-3.2.5-1.6.2-1.1.2-1.4.1-1.1.1-1.3.2-3.1.3h-1.8l-1.1.1-1.4.1h-1l-1.5.1h-3.9l-1.5.1h-4.4l-1.3-.1h-1.5l-1.2-.2h-.9a121.7 121.7 0 0 1-113.7-92.8l-.4-1.5a120 120 0 0 1-4-30.1v-.3a119.8 119.8 0 0 1 0-3.7v-4.1l.1-1.4.1-1 .1-1.3.1-1.5.1-1.3.2-1.4v-.7l.2-1.3.2-1.6.2-.8.2-1.9.2-1.2.2-.8.2-1.2.2-1 .3-1.4.3-1.4.3-1.3.4-1.8.4-1.6.3-1.2.4-1.4.3-1.1.3-1 .4-1.3.5-1.6.3-.8.4-1.1.2-.8.4-1 1.1-3Z"/><path fill="#FDD268" d="M228.2 4.3c3 4.6 1.3 12.3-1.7 20.9l-.1.3a86.3 86.3 0 0 0-5.3 30.3c-1.5-1-2.9-2.6-4.8-4.6-8.5-9-9.6-29.4-6.4-38.4 1-2.8 2.2-5.2 3.6-7.3A19 19 0 0 1 219 0s6.1-.4 9.2 4.3Zm47.3 111.8c6 5.4 11.9 12 17.7 19.7-.3 3.2-1 6.6-1.3 9.7a200 200 0 0 1-14.6 59.6c-7.8 17.8-25.7 40.6-41.6 58.6a37.2 37.2 0 0 0 9.4-24.2c0-7.3-4-19-1.1-37 2.8-17.9 15.5-26.2 23.6-47.3 5.4-14 8-27.1 7.9-39Z"/><path fill="#FFB84A" d="m227.7 60.3 2.2 1.2C253.3 75 266.4 85.8 269.3 94c3 8.6 5 16 6.2 22.2l-2.9-2.5c-7.2-6.4-13-11.7-17.4-15.9a108 108 0 0 1-7.4-7.9l-.8-1c-2-2.3-3.8-4.6-5.3-6.7-8.6-11.8-10.5-18.8-13.7-21.5l-.3-.3Z"/><path fill="#EE61A6" d="M390.1 256.3c.4 2.6-.3 5.3-2.1 8 2.5-4.5 3.2-7.8-.8-10.2a11 11 0 0 0-5.4-1.7h-.4c-13.5 0-29.2 23.5-24.2 46.6 4.9 22.8 12.1 82.6-1.8 121-1.9 4.8-2.9 7.6-5.5 12l-3.3 5c-5.2 7-10.6 13-16 18.2a123 123 0 0 1-16.2 12.4c-5.2 3.3-10.5 6-15.5 8l-.3.2c63.8-69.3 27.2-158.2 39-196.9 10.6-34.5 50.6-34.9 52.5-22.6Z"/><path fill="#000" fill-rule="nonzero" d="M63 256.4 57.6 267a22 22 0 0 1-3.6 5.2 16.8 16.8 0 0 1-4 3.2 16.8 16.8 0 0 1-12.3 1 17 17 0 0 1-11.5-10.8 18 18 0 0 1 1.5-14.8l5-9.9L63 256.4ZM34.5 247l-2.6 5.2a19 19 0 0 0-1.8 5.3 11 11 0 0 0 0 5.1c.3 1.7 1 3.2 2 4.6 1.2 1.4 2.6 2.6 4.5 3.6 1 .5 2.2.9 3.6 1.2a11.4 11.4 0 0 0 9.5-2c1.6-1 3-2.9 4.2-5.3l3.2-6.2L34.5 247Zm6.5 64.9-1 4-36.4 6.2 1.2-5.2 9-1.3 3.8-15.8-7.4-5.2 1.3-5.2L41 311.9Zm-22.9 3 16.7-2.5v-.1l-13.7-10-3 12.6Zm16.7 33.4-.2 6-28.4 18 28 .8-.2 4.6-34-1 .2-5.7 28.4-18.2v-.1l-27.9-.8.1-4.6zm-.1 75.6a10.9 10.9 0 0 0 2-8.8 12.2 12.2 0 0 0-5.8-8.2c-1.4-.8-3-1.4-4.8-1.6a15.7 15.7 0 0 0-10.3 2.1c-1.4 1-2.6 2-3.6 3.4-1 1.3-1.6 2.8-2 4.5a12.9 12.9 0 0 0 2.3 10.2 11 11 0 0 0 4.1 3l-2 4.3a15.5 15.5 0 0 1-4.3-3 16.3 16.3 0 0 1-4.3-8.3 16.8 16.8 0 0 1 2.8-13.7 17.6 17.6 0 0 1 10.8-7c2.6-.6 5-.7 7.4-.3a16.2 16.2 0 0 1 11.2 7 18.7 18.7 0 0 1 3 13.5 13 13 0 0 1-2.9 6l-3.6-3.1ZM50 446.4l1.7 4.3-31.6 12.5-1.7-4.2zm12.4 25 3.2 5-13.5 30.9 23.6-15 2.5 4-28.7 18.2-3-5 13.3-31-23.6 15-2.5-3.8zm40.7 71.9-11.6 12a30.2 30.2 0 0 1-11.4-6.7c-2.1-2-3.6-4-4.6-6.3a16.9 16.9 0 0 1 3.8-19.1 18.6 18.6 0 0 1 12.4-5.7c2.3-.1 4.5.3 6.7 1.1a18 18 0 0 1 6 4c2.3 2.2 3.9 4.2 4.8 6.2.9 2 1.3 3.8 1.3 5.8l-4.7.2a13.5 13.5 0 0 0-4.3-9 12.5 12.5 0 0 0-14.3-2.4 15 15 0 0 0-7.3 7.7 13.3 13.3 0 0 0 0 10c.7 1.6 1.7 3 3 4.4 1.2 1.1 2.5 2 3.7 2.9a13 13 0 0 0 3.6 1.6l6.6-6.8-5.4-5.2 3-3.2 8.7 8.5Zm56.7 17.7 4.2 1.8-11.7 27.3 14.3 6.2-1.7 3.9-18.6-8zm40.8 14.2 4.4 1-8 33-4.6-1zM259 596l-.7 16.8a30.2 30.2 0 0 1-13 2.6c-2.8-.1-5.4-.7-7.6-1.8a16.9 16.9 0 0 1-9.8-16.8 18.6 18.6 0 0 1 5.4-12.5 18.3 18.3 0 0 1 13-4.6c3.1.1 5.7.6 7.6 1.5 2 .8 3.6 2 4.9 3.4l-3.4 3.4a12 12 0 0 0-4.4-3c-1.5-.6-3.2-1-4.9-1a12.5 12.5 0 0 0-12.2 7.8 15 15 0 0 0-.3 10.6 13.3 13.3 0 0 0 6.6 7.4c1.6.8 3.3 1.2 5.2 1.3 1.7 0 3.2 0 4.7-.3a13 13 0 0 0 3.7-1.2l.4-9.4-7.5-.3.2-4.3 12 .4Zm24.8-17.7 4.5-1 2.8 14 17.3-3.5-2.8-13.8 4.5-1 6.6 33.4-4.5.9-3-15.2-17.3 3.4 3 15.3-4.5.8zm57.7-12.9-10 4.6-1.8-4 24.1-11 1.8 3.9-9.9 4.6 12.4 26.9-4 1.9zm75.9-23.9c1.4.3 2.8.2 4.2-.3a9.5 9.5 0 0 0 3.4-2.2 8.2 8.2 0 0 0 2.2-4.2c.2-.8.1-1.6 0-2.4-.3-.8-.7-1.5-1.3-2.2-1-1-2-1.4-3-1.3-1.1.1-2.3.5-3.5 1l-3.8 1.9c-1.3.7-2.7 1.2-4.1 1.5-1.4.4-2.9.3-4.4 0a10 10 0 0 1-4.6-2.8 8.8 8.8 0 0 1-2.4-6.4c0-1.3.3-2.7.9-4.1.6-1.5 1.6-3 3-4.4a19 19 0 0 1 4.4-3.2 9.2 9.2 0 0 1 5.3-1l-.2 5.1c-1-.2-2.2-.1-3.3.2-1.1.4-2.2 1-3.1 2-1 .9-1.6 1.7-2 2.6-.3.8-.5 1.6-.5 2.3 0 .8.2 1.4.5 2 .2.6.6 1 1 1.4 1 1 2 1.5 3.1 1.5 1.2 0 2.3-.3 3.6-.9a26 26 0 0 0 3.7-1.9c1.3-.7 2.7-1.3 4-1.7a10 10 0 0 1 4.2-.2c1.4.3 2.8 1.1 4.3 2.6a10.2 10.2 0 0 1 3 7.9 14 14 0 0 1-4 7.9 16.8 16.8 0 0 1-5.2 3.5c-2 .8-3.9 1-5.8.7l.4-5Zm16.6-54.6-6 9-3.7-2.3 14.6-22.1 3.6 2.4-6 9 24.8 16.4-2.6 3.9zm16-38.8 19.3 7.7c1 .4 2.1.6 3.3.8 1.1.1 2.3 0 3.4-.2 1.2-.3 2.2-.8 3.2-1.6s1.7-2 2.3-3.4a7.8 7.8 0 0 0-.6-7.4c-.6-1-1.4-1.8-2.4-2.5s-2-1.2-2.9-1.6l-19.4-7.7 1.7-4.2 20 7.9a14 14 0 0 1 4.7 2.9 12.8 12.8 0 0 1 4 9c0 1.7-.4 3.4-1 5.2-.8 1.7-1.7 3.2-2.9 4.4a12.3 12.3 0 0 1-9 4 14 14 0 0 1-5.4-1l-20-8 1.7-4.3Zm13-42.8 1.6-11.7a22 22 0 0 1 1.7-6.2c.8-1.7 1.7-3.2 2.8-4.4a16.8 16.8 0 0 1 11.3-5c1.3 0 2.5 0 3.5.2a17 17 0 0 1 11 6.3 18.4 18.4 0 0 1 3.3 14.4l-1.5 11-33.7-4.6Zm30-.5.8-5.8a15.8 15.8 0 0 0-1.7-10.5c-.9-1.4-2-2.6-3.5-3.6s-3.3-1.6-5.4-1.9h-3.8a11.4 11.4 0 0 0-8.3 5 14.4 14.4 0 0 0-2.2 6.5l-1 6.8 25.1 3.5Zm-26.4-53.2-.2-4.6 34-1.7.2 4.6zm25.6-54a16.7 16.7 0 0 1-6.2 18.6 18.6 18.6 0 0 1-20 1.6 17.7 17.7 0 0 1-8.3-11c-.6-2.5-.8-4.9-.5-7.2a16.7 16.7 0 0 1 6.7-11.4c2-1.4 4-2.4 6.5-3a18.6 18.6 0 0 1 13.6 1.5c2 1 3.6 2.5 5 4.4 1.5 1.9 2.6 4 3.2 6.5Zm-4.1 1.2a12.5 12.5 0 0 0-11.1-9.4 15 15 0 0 0-13.6 6.3 12.5 12.5 0 0 0-1.5 10 12.5 12.5 0 0 0 11 9.4 15 15 0 0 0 13.7-6.3 12.5 12.5 0 0 0 1.5-10Zm-20.3-43.6c.7-1.3 1-2.7 1-4.1a9.3 9.3 0 0 0-1.2-4 8.2 8.2 0 0 0-3.4-3.3c-.7-.3-1.5-.5-2.3-.6-.8 0-1.6.2-2.4.6a3.6 3.6 0 0 0-2.1 2.5c-.2 1.1-.2 2.3 0 3.6.1 1.3.4 2.7.7 4.2.3 1.5.4 3 .3 4.4a9.9 9.9 0 0 1-1.3 4.2 9.6 9.6 0 0 1-4 3.6 8.8 8.8 0 0 1-6.8.5c-1.3-.4-2.5-1-3.8-2-1.2-1-2.3-2.4-3.3-4.2a25 25 0 0 1-1.8-5c-.3-1.8-.1-3.6.7-5.5l4.7 1.7c-.5 1-.7 2-.7 3.2 0 1.2.3 2.4 1 3.5a8 8 0 0 0 1.9 2.6c.7.6 1.4 1 2.1 1.2.7.2 1.4.3 2 .2.7-.1 1.2-.3 1.6-.6 1.3-.6 2-1.5 2.4-2.6.3-1.1.3-2.3.2-3.6-.2-1.4-.4-2.7-.8-4.2-.3-1.5-.5-3-.5-4.3 0-1.4.4-2.8 1-4a8.2 8.2 0 0 1 3.7-3.4 10.2 10.2 0 0 1 8.4-.6 10 10 0 0 1 3.6 2.3 16.8 16.8 0 0 1 4.7 9.7 9 9 0 0 1-1 5.8l-4.6-1.8Z"/><path stroke="#000" stroke-linecap="round" stroke-linejoin="round" stroke-width="7" d="M440.3 231a233 233 0 0 0-89.2-75.6m-198.6-1.2a233 233 0 0 0-90.5 75m160.6-95a232 232 0 0 0-9 1.2"/></g></svg>